<?xml version="1.0" encoding="utf-8"?>
<!-- Generator: Adobe Illustrator 18.0.0, SVG Export Plug-In . SVG Version: 6.00 Build 0)  -->
<!DOCTYPE svg PUBLIC "-//W3C//DTD SVG 1.1//EN" "http://www.w3.org/Graphics/SVG/1.1/DTD/svg11.dtd">
<svg version="1.1" id="Calque_1" xmlns="http://www.w3.org/2000/svg" xmlns:xlink="http://www.w3.org/1999/xlink" x="0px" y="0px"
	 viewBox="0 0 20 18" style="enable-background:new 0 0 20 18;" xml:space="preserve">
<style type="text/css">
	.st0{fill:#FFFFFF;}
</style>
<g>
	<path class="st0" d="M11.9,0.3C11.8,0.1,11.7,0,11.5,0H6.2C5.6,0,5,0.1,4.4,0.3C2.5,1,1.1,2.6,1.1,4.3c0,2.4,1.9,4.2,4.3,4.3
		c0,0.2-0.1,0.4-0.1,0.6c0,0.4,0.1,0.7,0.3,1.1c0,0,0,0-0.1,0c-2.4,0-4.5,1.2-5.3,2.9C0.1,13.5,0,14,0,14.4c0,0.4,0.1,0.9,0.3,1.2
		c0.5,0.9,1.6,1.6,3.1,2C4.2,17.9,5,18,5.8,18c0.8,0,1.5-0.1,2.2-0.3c2.1-0.6,3.5-2.2,3.5-3.9c0-1.7-0.5-2.7-2-3.8
		C8.8,9.5,8.2,8.8,8.2,8.6c0-0.4,0-0.5,0.9-1.2c1.1-0.8,1.7-1.9,1.7-3.1c0-1.1-0.3-2-0.9-2.6h0.4c0.1,0,0.2,0,0.2-0.1l1.2-0.9
		C11.9,0.6,11.9,0.5,11.9,0.3z M3.9,4.2C3.8,3.4,4,2.6,4.4,2.1C4.7,1.8,5,1.6,5.5,1.6h0c1.2,0,2.3,1.3,2.5,2.9
		c0.1,0.9-0.1,1.7-0.5,2.2C7.2,7,6.8,7.2,6.4,7.2h0C5.2,7.2,4.1,5.8,3.9,4.2z M9.2,13.5c0,0.2,0.1,0.3,0.1,0.5
		c0,1.6-1.2,2.3-3.4,2.3c-1.7,0-3.1-1.1-3.1-2.4c0-1.2,1.6-2.3,3.4-2.3h0c0.4,0,0.8,0.1,1.1,0.2c0.1,0.1,0.2,0.2,0.4,0.2
		C8.5,12.5,9.1,12.9,9.2,13.5z"/>
	<path class="st0" d="M19.6,7.3h-3v-3c0-0.2-0.2-0.4-0.4-0.4h-0.9c-0.2,0-0.4,0.2-0.4,0.4v3h-3c-0.2,0-0.4,0.2-0.4,0.4v0.9
		c0,0.2,0.2,0.4,0.4,0.4h3v3c0,0.2,0.2,0.4,0.4,0.4h0.9c0.2,0,0.4-0.2,0.4-0.4V9h3C19.8,9,20,8.8,20,8.6V7.7
		C20,7.5,19.8,7.3,19.6,7.3z"/>
</g>
</svg>
