<?xml version="1.0" encoding="utf-8"?>
<!-- Generator: Adobe Illustrator 18.0.0, SVG Export Plug-In . SVG Version: 6.00 Build 0)  -->
<!DOCTYPE svg PUBLIC "-//W3C//DTD SVG 1.1//EN" "http://www.w3.org/Graphics/SVG/1.1/DTD/svg11.dtd">
<svg version="1.1" id="Calque_1" xmlns="http://www.w3.org/2000/svg" xmlns:xlink="http://www.w3.org/1999/xlink" x="0px" y="0px"
	 viewBox="0 0 41.3 116.6" style="enable-background:new 0 0 41.3 116.6;" xml:space="preserve">
<style type="text/css">
	.st0{fill:none;stroke:#FFFFFF;stroke-width:0.6163;stroke-miterlimit:10;}
	.st1{fill:none;stroke:#FFFFFF;stroke-width:0.6163;stroke-linecap:round;stroke-linejoin:round;stroke-miterlimit:10;}
</style>
<g>
	<circle class="st0" cx="20.7" cy="49" r="17.6"/>
	<circle class="st0" cx="20.7" cy="43.4" r="17.6"/>
	<circle class="st0" cx="17.9" cy="46.2" r="17.6"/>
	<circle class="st0" cx="23.4" cy="46.2" r="17.6"/>
	<path class="st1" d="M6.2,71.6c-1.8,2.9-2.7,5.8-2.7,8.6c0,2.7,0.8,5,2.5,6.9c1.6,1.9,3.7,2.8,6,2.8c1.8,0,3.2-0.4,4.4-1.2
		c1.1-0.8,2-1.8,2.6-3c0.5-1.1,1.2-2.7,2-5c0.9-2.6,1.7-4.4,2.2-5.5c0.6-1.1,1.4-2,2.4-2.8c1-0.8,2.4-1.2,4-1.2
		c2.3,0,4.2,0.9,5.8,2.8c1.6,1.9,2.4,4.1,2.4,6.8c0,2.6-0.7,5.2-2,7.7"/>
	<g>
		<path class="st1" d="M3.9,116.3V97.7h33.4v18.2 M21.8,97.7v17.8"/>
	</g>
	<path class="st1" d="M3.9,0.3h33.4v8.5c0,3.6-0.8,6.3-2.3,8.2c-1.6,1.9-3.8,2.8-6.5,2.8c-3.9,0-6.7-2.1-8.3-6.4
		c-0.5,1.1-2.2,2.6-5.1,4.4L3.9,25.5 M20.2,13.6V0.3"/>
</g>
</svg>
