#Obj v1.0
o Mesh0
v 0 0.37082012168055506 0.6
v 0.37082077929479634 0.6 -6.576142413129195e-7
v -0.37082077929479634 0.6 -6.576142413129195e-7
v 0 0.37082012168055506 0.6
v 0.5999993423857586 -6.576142413129195e-7 0.370820121680555
v 0.37082077929479634 0.6 -6.576142413129195e-7
v 0.5999993423857586 -6.576142413129195e-7 0.370820121680555
v 0.5999993423857586 6.576142413129195e-7 -0.3708214369090377
v 0.37082077929479634 0.6 -6.576142413129195e-7
v 0.5999993423857586 6.576142413129195e-7 -0.3708214369090377
v 0 0.37082012168055506 -0.6
v 0.37082077929479634 0.6 -6.576142413129195e-7
v 0 0.37082012168055506 -0.6
v -0.37082077929479634 0.6 -6.576142413129195e-7
v 0.37082077929479634 0.6 -6.576142413129195e-7
v -0.5999993423857586 6.576142413129195e-7 -0.3708214369090377
v -0.37082077929479634 0.6 -6.576142413129195e-7
v 0 0.37082012168055506 -0.6
v -0.5999993423857586 -6.576142413129195e-7 0.370820121680555
v -0.37082077929479634 0.6 -6.576142413129195e-7
v -0.5999993423857586 6.576142413129195e-7 -0.3708214369090377
v -0.5999993423857586 -6.576142413129195e-7 0.370820121680555
v 0 0.37082012168055506 0.6
v -0.37082077929479634 0.6 -6.576142413129195e-7
v 0 -0.37082012168055506 0.5999986847715174
v -0.37082077929479634 -0.6 -6.576142413129195e-7
v 0.37082077929479634 -0.6 -6.576142413129195e-7
v 0 -0.37082012168055506 0.5999986847715174
v 0.37082077929479634 -0.6 -6.576142413129195e-7
v 0.5999993423857586 -6.576142413129195e-7 0.370820121680555
v 0.37082077929479634 -0.6 -6.576142413129195e-7
v 0.5999993423857586 6.576142413129195e-7 -0.3708214369090377
v 0.5999993423857586 -6.576142413129195e-7 0.370820121680555
v 0.37082077929479634 -0.6 -6.576142413129195e-7
v 0 -0.37082012168055506 -0.6
v 0.5999993423857586 6.576142413129195e-7 -0.3708214369090377
v 0.37082077929479634 -0.6 -6.576142413129195e-7
v -0.37082077929479634 -0.6 -6.576142413129195e-7
v 0 -0.37082012168055506 -0.6
v -0.37082077929479634 -0.6 -6.576142413129195e-7
v -0.5999993423857586 6.576142413129195e-7 -0.3708214369090377
v 0 -0.37082012168055506 -0.6
v -0.37082077929479634 -0.6 -6.576142413129195e-7
v -0.5999993423857586 -6.576142413129195e-7 0.370820121680555
v -0.5999993423857586 6.576142413129195e-7 -0.3708214369090377
v -0.37082077929479634 -0.6 -6.576142413129195e-7
v 0 -0.37082012168055506 0.5999986847715174
v -0.5999993423857586 -6.576142413129195e-7 0.370820121680555
v 0 0.37082012168055506 0.6
v -0.5999993423857586 -6.576142413129195e-7 0.370820121680555
v 0 -0.37082012168055506 0.5999986847715174
v 0 0.37082012168055506 0.6
v 0 -0.37082012168055506 0.5999986847715174
v 0.5999993423857586 -6.576142413129195e-7 0.370820121680555
v 0.5999993423857586 6.576142413129195e-7 -0.3708214369090377
v 0 -0.37082012168055506 -0.6
v 0 0.37082012168055506 -0.6
v 0 -0.37082012168055506 -0.6
v -0.5999993423857586 6.576142413129195e-7 -0.3708214369090377
v 0 0.37082012168055506 -0.6
vn 0 0.9341723483842146 0.3568221174679639
vn 0 0.9341723483842146 0.3568221174679639
vn 0 0.9341723483842146 0.3568221174679639
vn 0.5773510323408468 0.5773493756757778 0.5773503995510422
vn 0.5773510323408468 0.5773493756757778 0.5773503995510422
vn 0.5773510323408468 0.5773493756757778 0.5773503995510422
vn 0.9341729006048132 0.35682067173187904 6.327864252158932e-7
vn 0.9341729006048132 0.35682067173187904 6.327864252158932e-7
vn 0.9341729006048132 0.35682067173187904 6.327864252158932e-7
vn 0.5773493756744245 0.5773503995526265 -0.5773510323406155
vn 0.5773493756744245 0.5773503995526265 -0.5773510323406155
vn 0.5773493756744245 0.5773503995526265 -0.5773510323406155
vn 0 0.9341720876600618 -0.3568228000518495
vn 0 0.9341720876600618 -0.3568228000518495
vn 0 0.9341720876600618 -0.3568228000518495
vn -0.5773493756744245 0.5773503995526265 -0.5773510323406155
vn -0.5773493756744245 0.5773503995526265 -0.5773510323406155
vn -0.5773493756744245 0.5773503995526265 -0.5773510323406155
vn -0.9341729006048132 0.35682067173187904 6.327864252158932e-7
vn -0.9341729006048132 0.35682067173187904 6.327864252158932e-7
vn -0.9341729006048132 0.35682067173187904 6.327864252158932e-7
vn -0.5773510323408468 0.5773493756757779 0.577350399551042
vn -0.5773510323408468 0.5773493756757779 0.577350399551042
vn -0.5773510323408468 0.5773493756757779 0.577350399551042
vn 0 -0.9341720876600618 0.3568228000518495
vn 0 -0.9341720876600618 0.3568228000518495
vn 0 -0.9341720876600618 0.3568228000518495
vn 0.5773493756744246 -0.5773503995526266 0.5773510323406155
vn 0.5773493756744246 -0.5773503995526266 0.5773510323406155
vn 0.5773493756744246 -0.5773503995526266 0.5773510323406155
vn 0.9341729006048132 -0.356820671731879 -6.327864251543967e-7
vn 0.9341729006048132 -0.356820671731879 -6.327864251543967e-7
vn 0.9341729006048132 -0.356820671731879 -6.327864251543967e-7
vn 0.5773501388260196 -0.57734950603901 -0.5773511627026371
vn 0.5773501388260196 -0.57734950603901 -0.5773511627026371
vn 0.5773501388260196 -0.57734950603901 -0.5773511627026371
vn 0 -0.9341720876600615 -0.35682280005184946
vn 0 -0.9341720876600615 -0.35682280005184946
vn 0 -0.9341720876600615 -0.35682280005184946
vn -0.5773501388260196 -0.57734950603901 -0.5773511627026371
vn -0.5773501388260196 -0.57734950603901 -0.5773511627026371
vn -0.5773501388260196 -0.57734950603901 -0.5773511627026371
vn -0.9341729006048132 -0.356820671731879 -6.327864251543967e-7
vn -0.9341729006048132 -0.356820671731879 -6.327864251543967e-7
vn -0.9341729006048132 -0.356820671731879 -6.327864251543967e-7
vn -0.5773493756744247 -0.5773503995526267 0.5773510323406155
vn -0.5773493756744247 -0.5773503995526267 0.5773510323406155
vn -0.5773493756744247 -0.5773503995526267 0.5773510323406155
vn -0.356821906535833 -0.0000016566660145336972 0.9341724289516302
vn -0.356821906535833 -0.0000016566660145336972 0.9341724289516302
vn -0.356821906535833 -0.0000016566660145336972 0.9341724289516302
vn 0.356821906535833 -0.0000016566660145336972 0.9341724289516302
vn 0.356821906535833 -0.0000016566660145336972 0.9341724289516302
vn 0.356821906535833 -0.0000016566660145336972 0.9341724289516302
vn 0.3568210130229855 0 -0.9341727702439473
vn 0.3568210130229855 0 -0.9341727702439473
vn 0.3568210130229855 0 -0.9341727702439473
vn -0.35682101302298547 0 -0.9341727702439472
vn -0.35682101302298547 0 -0.9341727702439472
vn -0.35682101302298547 0 -0.9341727702439472
f 1/1/1 2/2/2 3/3/3
f 4/4/4 5/5/5 6/6/6
f 7/7/7 8/8/8 9/9/9
f 10/10/10 11/11/11 12/12/12
f 13/13/13 14/14/14 15/15/15
f 16/16/16 17/17/17 18/18/18
f 19/19/19 20/20/20 21/21/21
f 22/22/22 23/23/23 24/24/24
f 25/25/25 26/26/26 27/27/27
f 28/28/28 29/29/29 30/30/30
f 31/31/31 32/32/32 33/33/33
f 34/34/34 35/35/35 36/36/36
f 37/37/37 38/38/38 39/39/39
f 40/40/40 41/41/41 42/42/42
f 43/43/43 44/44/44 45/45/45
f 46/46/46 47/47/47 48/48/48
f 49/49/49 50/50/50 51/51/51
f 52/52/52 53/53/53 54/54/54
f 55/55/55 56/56/56 57/57/57
f 58/58/58 59/59/59 60/60/60
