####
#
# OBJ File Generated by Meshlab
#
####
# Object Tubes_02.obj
#
# Vertices: 100
# Faces: 100
#
####
mtllib ./Tubes_02.obj.mtl

vn 2.382606 -0.016987 -0.312080
v -41.314888 0.458902 48.722340 0.752941 0.752941 0.752941
vn 0.474754 -0.016095 -2.628819
v -49.045685 0.458902 41.709343 0.752941 0.752941 0.752941
vn 1.213280 0.015175 -2.425197
v -46.072006 200.458908 42.760426 0.752941 0.752941 0.752941
vn -2.135247 -0.005831 -1.707961
v -56.167183 0.458902 44.540470 0.752941 0.752941 0.752941
vn -1.666399 0.010930 -1.813503
v -55.831921 200.458908 43.438576 0.752941 0.752941 0.752941
vn -2.459874 0.005472 1.036455
v -57.464272 200.458908 53.732338 0.752941 0.752941 0.752941
vn -2.105000 -0.009844 1.218166
v -57.724350 0.458902 54.171082 0.752941 0.752941 0.752941
vn -0.508999 0.010366 2.804742
v -51.215015 200.458908 58.146431 0.752941 0.752941 0.752941
vn 0.776404 -0.019063 2.330468
v -47.325146 0.458902 58.039516 0.752941 0.752941 0.752941
vn 1.789622 0.004323 2.257412
v -45.161930 200.458908 56.554806 0.752941 0.752941 0.752941
vn 2.704438 0.003485 -0.109455
v -41.530472 200.458908 49.763866 0.752941 0.752941 0.752941
vn 2.519792 -0.013885 1.209721
v 7.464271 0.458902 53.732342 0.752941 0.752941 0.752941
vn 2.380943 -0.006133 -1.395815
v 7.239576 0.458902 46.072006 0.752941 0.752941 0.752941
vn 2.203609 0.018967 -0.876666
v 8.160354 200.458908 46.763924 0.752941 0.752941 0.752941
vn -0.152334 -0.002770 -2.584618
v -0.508496 0.458902 41.397278 0.752941 0.752941 0.752941
vn -0.425059 0.011648 -2.481130
v -1.703263 200.458908 41.700146 0.752941 0.752941 0.752941
vn -2.520858 -0.011334 -0.998885
v -7.662529 0.458902 46.979034 0.752941 0.752941 0.752941
vn -2.572231 0.013500 -0.423695
v -8.381860 200.458908 48.761829 0.752941 0.752941 0.752941
vn -1.927477 -0.012158 1.772807
v -6.263215 0.458902 55.919250 0.752941 0.752941 0.752941
vn -1.471785 0.014207 2.232899
v -4.598077 200.458908 56.964439 0.752941 0.752941 0.752941
vn 0.571547 -0.012077 2.783580
v 1.911418 0.458902 57.919525 0.752941 0.752941 0.752941
vn 1.436980 0.018879 2.104982
v 4.439260 200.458908 57.216759 0.752941 0.752941 0.752941
vn 2.257412 0.004323 -1.789622
v 56.554806 200.458908 45.161930 0.752941 0.752941 0.752941
vn -0.109455 0.003485 -2.704438
v 49.763866 200.458908 41.530472 0.752941 0.752941 0.752941
vn -0.312080 -0.016987 -2.382606
v 48.722340 0.458902 41.314888 0.752941 0.752941 0.752941
vn -2.628819 -0.016095 -0.474754
v 41.709343 0.458902 49.045685 0.752941 0.752941 0.752941
vn -2.425197 0.015175 -1.213280
v 42.760426 200.458908 46.072006 0.752941 0.752941 0.752941
vn -1.707961 -0.005831 2.135247
v 44.540470 0.458902 56.167183 0.752941 0.752941 0.752941
vn -1.813503 0.010930 1.666399
v 43.438576 200.458908 55.831921 0.752941 0.752941 0.752941
vn 1.036455 0.005472 2.459874
v 53.732338 200.458908 57.464272 0.752941 0.752941 0.752941
vn 1.218166 -0.009844 2.105000
v 54.171082 0.458902 57.724350 0.752941 0.752941 0.752941
vn 2.804742 0.010366 0.508999
v 58.146431 200.458908 51.215015 0.752941 0.752941 0.752941
vn 2.330468 -0.019063 -0.776404
v 58.039516 0.458902 47.325146 0.752941 0.752941 0.752941
vn 2.584618 -0.002770 -0.152334
v -41.397278 0.458902 -0.508496 0.752941 0.752941 0.752941
vn 2.481130 0.011648 -0.425059
v -41.700146 200.458908 -1.703263 0.752941 0.752941 0.752941
vn 0.998885 -0.011334 -2.520858
v -46.979034 0.458902 -7.662529 0.752941 0.752941 0.752941
vn 0.423695 0.013500 -2.572231
v -48.761829 200.458908 -8.381860 0.752941 0.752941 0.752941
vn -1.772807 -0.012158 -1.927477
v -55.919250 0.458902 -6.263215 0.752941 0.752941 0.752941
vn -2.232899 0.014207 -1.471785
v -56.964439 200.458908 -4.598077 0.752941 0.752941 0.752941
vn -2.783580 -0.012077 0.571547
v -57.919525 0.458902 1.911418 0.752941 0.752941 0.752941
vn -2.104982 0.018879 1.436980
v -57.216759 200.458908 4.439260 0.752941 0.752941 0.752941
vn -1.209721 -0.013885 2.519793
v -53.732342 0.458902 7.464271 0.752941 0.752941 0.752941
vn 1.395815 -0.006133 2.380943
v -46.072006 0.458902 7.239576 0.752941 0.752941 0.752941
vn 0.876666 0.018967 2.203609
v -46.763924 200.458908 8.160354 0.752941 0.752941 0.752941
vn 2.898918 0.001934 -0.338432
v 8.095663 200.458908 -0.912484 0.752941 0.752941 0.752941
vn 1.805317 0.002239 -2.252774
v 5.125459 200.458908 -6.447501 0.752941 0.752941 0.752941
vn 0.823005 -0.024375 -2.075357
v 3.236075 0.458902 -8.160354 0.752941 0.752941 0.752941
vn -0.338432 0.001934 -2.898918
v -0.912484 200.458908 -8.095663 0.752941 0.752941 0.752941
vn -2.252774 0.002239 -1.805317
v -6.447501 200.458908 -5.125459 0.752941 0.752941 0.752941
vn -2.075357 -0.024375 -0.823005
v -8.160354 0.458902 -3.236075 0.752941 0.752941 0.752941
vn -2.898918 0.001934 0.338432
v -8.095663 200.458908 0.912484 0.752941 0.752941 0.752941
vn -1.805317 0.002239 2.252774
v -5.125459 200.458908 6.447501 0.752941 0.752941 0.752941
vn -0.823005 -0.024375 2.075357
v -3.236075 0.458902 8.160354 0.752941 0.752941 0.752941
vn 0.338432 0.001934 2.898918
v 0.912484 200.458908 8.095663 0.752941 0.752941 0.752941
vn 2.252774 0.002239 1.805317
v 6.447501 200.458908 5.125459 0.752941 0.752941 0.752941
vn 2.075358 -0.024375 0.823005
v 8.160354 0.458902 3.236075 0.752941 0.752941 0.752941
vn 2.783580 -0.012077 -0.571547
v 57.919525 0.458902 -1.911418 0.752941 0.752941 0.752941
vn 2.104982 0.018879 -1.436980
v 57.216759 200.458908 -4.439260 0.752941 0.752941 0.752941
vn 1.209721 -0.013885 -2.519793
v 53.732342 0.458902 -7.464271 0.752941 0.752941 0.752941
vn -1.395815 -0.006133 -2.380943
v 46.072006 0.458902 -7.239576 0.752941 0.752941 0.752941
vn -0.876666 0.018967 -2.203609
v 46.763924 200.458908 -8.160354 0.752941 0.752941 0.752941
vn -2.584618 -0.002770 0.152334
v 41.397278 0.458902 0.508496 0.752941 0.752941 0.752941
vn -2.481130 0.011648 0.425059
v 41.700146 200.458908 1.703263 0.752941 0.752941 0.752941
vn -0.998885 -0.011334 2.520858
v 46.979034 0.458902 7.662529 0.752941 0.752941 0.752941
vn -0.423695 0.013500 2.572231
v 48.761829 200.458908 8.381860 0.752941 0.752941 0.752941
vn 1.772807 -0.012158 1.927477
v 55.919250 0.458902 6.263215 0.752941 0.752941 0.752941
vn 2.232899 0.014207 1.471785
v 56.964439 200.458908 4.598077 0.752941 0.752941 0.752941
vn 1.707961 -0.005831 -2.135247
v -44.540470 0.458902 -56.167183 0.752941 0.752941 0.752941
vn 1.813503 0.010930 -1.666400
v -43.438576 200.458908 -55.831921 0.752941 0.752941 0.752941
vn -1.036455 0.005472 -2.459874
v -53.732338 200.458908 -57.464272 0.752941 0.752941 0.752941
vn -1.218166 -0.009844 -2.105000
v -54.171082 0.458902 -57.724350 0.752941 0.752941 0.752941
vn -2.804742 0.010366 -0.508999
v -58.146431 200.458908 -51.215015 0.752941 0.752941 0.752941
vn -2.330468 -0.019063 0.776404
v -58.039516 0.458902 -47.325146 0.752941 0.752941 0.752941
vn -2.257412 0.004323 1.789622
v -56.554806 200.458908 -45.161930 0.752941 0.752941 0.752941
vn 0.109455 0.003485 2.704438
v -49.763866 200.458908 -41.530472 0.752941 0.752941 0.752941
vn 0.312080 -0.016987 2.382606
v -48.722340 0.458902 -41.314888 0.752941 0.752941 0.752941
vn 2.628820 -0.016095 0.474754
v -41.709343 0.458902 -49.045685 0.752941 0.752941 0.752941
vn 2.425197 0.015175 1.213280
v -42.760426 200.458908 -46.072006 0.752941 0.752941 0.752941
vn 2.572231 0.013500 0.423695
v 8.381860 200.458908 -48.761829 0.752941 0.752941 0.752941
vn 1.927477 -0.012158 -1.772807
v 6.263215 0.458902 -55.919250 0.752941 0.752941 0.752941
vn 1.471785 0.014207 -2.232899
v 4.598077 200.458908 -56.964439 0.752941 0.752941 0.752941
vn -0.571547 -0.012077 -2.783580
v -1.911418 0.458902 -57.919525 0.752941 0.752941 0.752941
vn -1.436980 0.018879 -2.104982
v -4.439260 200.458908 -57.216759 0.752941 0.752941 0.752941
vn -2.519793 -0.013885 -1.209721
v -7.464271 0.458902 -53.732342 0.752941 0.752941 0.752941
vn -2.380943 -0.006133 1.395815
v -7.239576 0.458902 -46.072006 0.752941 0.752941 0.752941
vn -2.203609 0.018967 0.876666
v -8.160354 200.458908 -46.763924 0.752941 0.752941 0.752941
vn 0.152334 -0.002770 2.584618
v 0.508496 0.458902 -41.397278 0.752941 0.752941 0.752941
vn 0.425059 0.011648 2.481130
v 1.703263 200.458908 -41.700146 0.752941 0.752941 0.752941
vn 2.520858 -0.011334 0.998885
v 7.662529 0.458902 -46.979034 0.752941 0.752941 0.752941
vn 2.289966 0.018418 -1.146526
v 57.464272 200.458908 -53.732338 0.752941 0.752941 0.752941
vn 2.914233 -0.005911 -0.176006
v 58.131126 0.458902 -50.507164 0.752941 0.752941 0.752941
vn 1.774824 -0.011428 -2.203911
v 55.459522 0.458902 -56.167187 0.752941 0.752941 0.752941
vn -0.972525 -0.002252 -2.381160
v 47.325146 0.458902 -58.039516 0.752941 0.752941 0.752941
vn -0.526092 0.005863 -2.339814
v 48.230118 200.458908 -58.598320 0.752941 0.752941 0.752941
vn -2.570183 0.002252 -0.099470
v 41.530472 200.458908 -49.763866 0.752941 0.752941 0.752941
vn -2.378638 -0.005863 0.305899
v 41.314888 0.458902 -48.722340 0.752941 0.752941 0.752941
vn -0.474754 -0.016095 2.628819
v 49.045685 0.458902 -41.709343 0.752941 0.752941 0.752941
vn -1.213280 0.015175 2.425197
v 46.072006 200.458908 -42.760426 0.752941 0.752941 0.752941
vn 2.076476 -0.007258 1.949235
v 56.167183 0.458902 -44.540470 0.752941 0.752941 0.752941
vn 1.665610 0.018388 1.818315
v 55.831921 200.458908 -43.438576 0.752941 0.752941 0.752941
# 100 vertices, 0 vertices normals


usemtl material_0
vt 0.111111 0.000000
vt 0.111111 1.000000
vt 0.083333 1.000000
f 1/1/1 3/2/3 11/3/11
vt 0.166667 0.000000
vt 0.138889 1.000000
vt 0.138889 0.000000
f 2/4/2 3/5/3 1/6/1
vt 0.250000 0.000000
vt 0.250000 1.000000
vt 0.222222 1.000000
f 2/7/2 5/8/5 3/9/3
vt 0.333333 0.000000
vt 0.305556 1.000000
vt 0.305556 0.000000
f 4/10/4 5/11/5 2/12/2
vt 0.472222 0.000000
vt 0.444444 1.000000
vt 0.444444 0.000000
f 7/13/7 5/14/5 4/15/4
vt 0.500000 0.000000
vt 0.500000 1.000000
vt 0.472222 1.000000
f 7/16/7 6/17/6 5/18/5
vt 0.666667 0.000000
vt 0.666667 1.000000
vt 0.638889 1.000000
f 7/19/7 8/20/8 6/21/6
vt 0.722222 0.000000
vt 0.694444 1.000000
vt 0.694444 0.000000
f 9/22/9 8/23/8 7/24/7
vt 0.805556 0.000000
vt 0.805556 1.000000
vt 0.777778 1.000000
f 9/25/9 10/26/10 8/27/8
vt 0.916667 0.000000
vt 0.916667 1.000000
vt 0.888889 1.000000
f 1/28/1 11/29/11 10/30/10
vt 0.888889 0.000000
f 1/28/1 10/30/10 9/31/9
vt 0.027778 0.000000
vt 0.000000 1.000000
vt 0.000000 0.000000
f 13/32/13 14/33/14 12/34/12
f 15/4/15 14/5/14 13/6/13
vt 0.194444 0.000000
vt 0.194444 1.000000
vt 0.166667 1.000000
f 15/35/15 16/36/16 14/37/14
vt 0.388889 0.000000
vt 0.388889 1.000000
vt 0.361111 1.000000
f 17/38/17 18/39/18 16/40/16
vt 0.361111 0.000000
f 17/38/17 16/40/16 15/41/15
vt 0.527778 0.000000
f 19/42/19 18/17/18 17/16/17
vt 0.583333 0.000000
vt 0.583333 1.000000
vt 0.555556 1.000000
f 19/43/19 20/44/20 18/45/18
vt 0.750000 0.000000
vt 0.750000 1.000000
vt 0.722222 1.000000
f 21/46/21 22/47/22 20/48/20
f 21/46/21 20/48/20 19/22/19
vt 0.861111 0.000000
vt 0.833333 1.000000
vt 0.833333 0.000000
f 12/49/12 22/50/22 21/51/21
vt 0.944444 0.000000
vt 0.944444 1.000000
f 12/52/12 14/53/14 22/29/22
vt 0.055556 0.000000
vt 0.055556 1.000000
vt 0.027778 1.000000
f 33/54/33 23/55/23 32/56/32
f 25/4/25 24/37/24 23/5/23
f 25/4/25 23/5/23 33/6/33
vt 0.333333 1.000000
f 25/41/25 27/40/27 24/57/24
vt 0.416667 0.000000
f 26/58/26 27/39/27 25/38/25
f 26/16/26 29/17/29 27/18/27
vt 0.555556 0.000000
f 28/43/28 29/45/29 26/59/26
f 31/22/31 29/23/29 28/24/28
f 31/46/31 30/47/30 29/48/29
f 31/28/31 32/29/32 30/30/30
vt 0.972222 0.000000
f 33/60/33 32/53/32 31/52/31
f 36/6/36 37/5/37 35/2/35
f 36/6/36 35/2/35 34/1/34
vt 0.277778 0.000000
f 38/61/38 37/8/37 36/7/36
f 38/10/38 39/57/39 37/11/37
f 40/16/40 41/17/41 39/18/39
f 40/16/40 39/18/39 38/13/38
vt 0.611111 0.000000
f 42/62/42 41/44/41 40/43/40
f 42/24/42 44/23/44 41/20/41
vt 0.777778 0.000000
f 43/63/43 44/47/44 42/46/42
f 34/28/34 44/30/44 43/31/43
f 34/52/34 35/53/35 44/29/44
vt 0.083333 0.000000
f 47/64/47 46/3/46 45/55/45
f 47/64/47 45/55/45 56/54/56
vt 0.222222 0.000000
f 47/65/47 48/9/48 46/36/46
f 50/10/50 49/57/49 48/11/48
f 50/10/50 48/11/48 47/12/47
f 50/13/50 51/18/51 49/14/49
f 53/43/53 52/44/52 51/45/51
f 53/43/53 51/45/51 50/59/50
f 53/22/53 54/48/54 52/23/52
f 56/51/56 55/50/55 54/26/54
f 56/51/56 54/26/54 53/25/53
vt 0.972222 1.000000
f 56/60/56 45/66/45 55/53/55
f 59/1/59 58/3/58 57/64/57
f 59/35/59 61/36/61 58/37/58
f 60/61/60 61/8/61 59/7/59
f 62/58/62 61/39/61 60/38/60
vt 0.416667 1.000000
f 62/15/62 63/14/63 61/67/61
vt 0.638889 0.000000
vt 0.611111 1.000000
f 64/68/64 65/21/65 63/69/63
f 64/68/64 63/69/63 62/62/62
f 66/63/66 65/47/65 64/46/64
f 66/51/66 67/50/67 65/26/65
vt 1.000000 0.000000
vt 1.000000 1.000000
f 57/70/57 58/71/58 67/66/67
f 57/70/57 67/66/67 66/60/66
f 68/64/68 69/55/69 77/54/77
f 71/65/71 69/36/69 68/35/68
f 71/7/71 70/8/70 69/9/69
f 71/58/71 72/67/72 70/39/70
f 73/13/73 72/14/72 71/15/71
vt 0.527778 1.000000
f 73/59/73 74/45/74 72/72/72
f 76/19/76 75/20/75 74/21/74
f 76/19/76 74/21/74 73/68/73
vt 0.861111 1.000000
f 76/49/76 78/73/78 75/50/75
f 77/28/77 78/30/78 76/31/76
f 77/70/77 69/71/69 78/66/78
f 80/32/80 79/33/79 89/34/89
f 80/64/80 81/3/81 79/55/79
f 82/7/82 83/8/83 81/9/81
f 82/7/82 81/9/81 80/65/80
f 84/41/84 83/57/83 82/10/82
f 84/15/84 86/14/86 83/67/83
f 85/42/85 86/17/86 84/16/84
f 87/19/87 86/21/86 85/68/85
f 87/24/87 88/23/88 86/20/86
f 89/31/89 79/30/79 88/73/88
f 89/31/89 88/73/88 87/49/87
f 92/64/92 90/55/90 91/54/91
f 92/4/92 94/37/94 90/5/90
f 93/65/93 94/36/94 92/35/92
f 96/58/96 95/67/95 94/39/94
f 96/58/96 94/39/94 93/38/93
f 96/62/96 98/69/98 95/44/95
f 97/19/97 98/21/98 96/68/96
f 97/46/97 100/47/100 98/48/98
f 99/51/99 100/26/100 97/25/97
f 91/60/91 100/53/100 99/52/99
f 91/70/91 90/71/90 100/66/100
# 100 faces, 73 coords texture

# End of File