#Obj v1.0
o Mesh0
v 0 0.6 0
v 0 0.6 0
v 0 0.6 0
v 0 0.6 0
v 0 0.6 0
v 0 0.6 0
v 0 0.6 0
v 0 0.6 0
v 0 0.6 0
v 0 0.5543277195067721 0.22961005941905385
v 0.16235883004385906 0.5543277195067721 0.1623588300438591
v 0.22961005941905385 0.5543277195067721 1.4059096883305346e-17
v 0.1623588300438591 0.5543277195067721 -0.16235883004385906
v 2.811819376661069e-17 0.5543277195067721 -0.22961005941905385
v -0.16235883004385906 0.5543277195067721 -0.16235883004385912
v -0.22961005941905385 0.5543277195067721 -4.217729064991604e-17
v -0.16235883004385912 0.5543277195067721 0.16235883004385906
v -5.623638753322139e-17 0.5543277195067721 0.22961005941905385
v 0 0.4242640687119285 0.42426406871192845
v 0.29999999999999993 0.4242640687119285 0.3
v 0.42426406871192845 0.4242640687119285 2.597782371215806e-17
v 0.3 0.4242640687119285 -0.29999999999999993
v 5.195564742431612e-17 0.4242640687119285 -0.42426406871192845
v -0.29999999999999993 0.4242640687119285 -0.30000000000000004
v -0.42426406871192845 0.4242640687119285 -7.793347113647418e-17
v -0.30000000000000004 0.4242640687119285 0.2999999999999999
v -1.0391129484863225e-16 0.4242640687119285 0.42426406871192845
v 0 0.22961005941905388 0.5543277195067721
v 0.3919688894629129 0.22961005941905388 0.391968889462913
v 0.5543277195067721 0.22961005941905388 3.394166237039308e-17
v 0.391968889462913 0.22961005941905388 -0.3919688894629129
v 6.788332474078616e-17 0.22961005941905388 -0.5543277195067721
v -0.3919688894629129 0.22961005941905388 -0.39196888946291303
v -0.5543277195067721 0.22961005941905388 -1.0182498711117923e-16
v -0.39196888946291303 0.22961005941905388 0.3919688894629128
v -1.3576664948157232e-16 0.22961005941905388 0.5543277195067721
v 0 3.6738190614671314e-17 0.6
v 0.42426406871192845 3.6738190614671314e-17 0.4242640687119285
v 0.6 3.6738190614671314e-17 3.6738190614671314e-17
v 0.4242640687119285 3.6738190614671314e-17 -0.42426406871192845
v 7.347638122934263e-17 3.6738190614671314e-17 -0.6
v -0.42426406871192845 3.6738190614671314e-17 -0.4242640687119286
v -0.6 3.6738190614671314e-17 -1.1021457184401395e-16
v -0.4242640687119286 3.6738190614671314e-17 0.4242640687119284
v -1.4695276245868526e-16 3.6738190614671314e-17 0.6
v 0 -0.22961005941905382 0.5543277195067721
v 0.3919688894629129 -0.22961005941905382 0.391968889462913
v 0.5543277195067721 -0.22961005941905382 3.394166237039308e-17
v 0.391968889462913 -0.22961005941905382 -0.3919688894629129
v 6.788332474078616e-17 -0.22961005941905382 -0.5543277195067721
v -0.3919688894629129 -0.22961005941905382 -0.39196888946291303
v -0.5543277195067721 -0.22961005941905382 -1.0182498711117923e-16
v -0.39196888946291303 -0.22961005941905382 0.3919688894629128
v -1.3576664948157232e-16 -0.22961005941905382 0.5543277195067721
v 0 -0.42426406871192845 0.4242640687119285
v 0.3 -0.42426406871192845 0.30000000000000004
v 0.4242640687119285 -0.42426406871192845 2.5977823712158064e-17
v 0.30000000000000004 -0.42426406871192845 -0.3
v 5.195564742431613e-17 -0.42426406871192845 -0.4242640687119285
v -0.3 -0.42426406871192845 -0.30000000000000004
v -0.4242640687119285 -0.42426406871192845 -7.793347113647421e-17
v -0.30000000000000004 -0.42426406871192845 0.29999999999999993
v -1.0391129484863226e-16 -0.42426406871192845 0.4242640687119285
v 0 -0.5543277195067721 0.22961005941905394
v 0.16235883004385912 -0.5543277195067721 0.16235883004385918
v 0.22961005941905394 -0.5543277195067721 1.4059096883305353e-17
v 0.16235883004385918 -0.5543277195067721 -0.16235883004385912
v 2.8118193766610705e-17 -0.5543277195067721 -0.22961005941905394
v -0.16235883004385912 -0.5543277195067721 -0.16235883004385918
v -0.22961005941905394 -0.5543277195067721 -4.217729064991606e-17
v -0.16235883004385918 -0.5543277195067721 0.1623588300438591
v -5.623638753322141e-17 -0.5543277195067721 0.22961005941905394
v 0 -0.6 7.347638122934263e-17
v 5.195564742431612e-17 -0.6 5.195564742431613e-17
v 7.347638122934263e-17 -0.6 4.4989821654664125e-33
v 5.195564742431613e-17 -0.6 -5.195564742431612e-17
v 8.997964330932825e-33 -0.6 -7.347638122934263e-17
v -5.195564742431612e-17 -0.6 -5.1955647424316135e-17
v -7.347638122934263e-17 -0.6 -1.3496946496399235e-32
v -5.1955647424316135e-17 -0.6 5.1955647424316116e-17
v -1.799592866186565e-32 -0.6 7.347638122934263e-17
vt 0 0
vt 0.125 0
vt 0.25 0
vt 0.375 0
vt 0.5 0
vt 0.625 0
vt 0.75 0
vt 0.875 0
vt 1 0
vt 0 0.125
vt 0.125 0.125
vt 0.25 0.125
vt 0.375 0.125
vt 0.5 0.125
vt 0.625 0.125
vt 0.75 0.125
vt 0.875 0.125
vt 1 0.125
vt 0 0.25
vt 0.125 0.25
vt 0.25 0.25
vt 0.375 0.25
vt 0.5 0.25
vt 0.625 0.25
vt 0.75 0.25
vt 0.875 0.25
vt 1 0.25
vt 0 0.375
vt 0.125 0.375
vt 0.25 0.375
vt 0.375 0.375
vt 0.5 0.375
vt 0.625 0.375
vt 0.75 0.375
vt 0.875 0.375
vt 1 0.375
vt 0 0.5
vt 0.125 0.5
vt 0.25 0.5
vt 0.375 0.5
vt 0.5 0.5
vt 0.625 0.5
vt 0.75 0.5
vt 0.875 0.5
vt 1 0.5
vt 0 0.625
vt 0.125 0.625
vt 0.25 0.625
vt 0.375 0.625
vt 0.5 0.625
vt 0.625 0.625
vt 0.75 0.625
vt 0.875 0.625
vt 1 0.625
vt 0 0.75
vt 0.125 0.75
vt 0.25 0.75
vt 0.375 0.75
vt 0.5 0.75
vt 0.625 0.75
vt 0.75 0.75
vt 0.875 0.75
vt 1 0.75
vt 0 0.875
vt 0.125 0.875
vt 0.25 0.875
vt 0.375 0.875
vt 0.5 0.875
vt 0.625 0.875
vt 0.75 0.875
vt 0.875 0.875
vt 1 0.875
vt 0 1
vt 0.125 1
vt 0.25 1
vt 0.375 1
vt 0.5 1
vt 0.625 1
vt 0.75 1
vt 0.875 1
vt 1 1
vn 0.08054649671665699 0.9775985643157131 0.19445644477499327
vn 0.19445644477499324 0.9775985643157132 0.080546496716657
vn 0.19445644477499327 0.9775985643157131 -0.08054649671665699
vn 0.08054649671665702 0.9775985643157132 -0.19445644477499324
vn -0.08054649671665695 0.9775985643157131 -0.19445644477499327
vn -0.19445644477499321 0.9775985643157131 -0.08054649671665699
vn -0.19445644477499327 0.9775985643157131 0.08054649671665695
vn -0.08054649671665699 0.9775985643157131 0.19445644477499321
vn 0 0 0
vn 0.18372282429224923 0.8772187587699423 0.4435461341238372
vn 0.34044630333048054 0.904324739894484 0.25747442467822723
vn 0.4227938013869545 0.9043247398944841 -0.058669978042795584
vn 0.25747442467822723 0.9043247398944841 -0.3404463033304805
vn -0.05866997804279552 0.9043247398944841 -0.4227938013869546
vn -0.3404463033304805 0.9043247398944841 -0.25747442467822723
vn -0.4227938013869545 0.9043247398944841 0.05866997804279554
vn -0.25747442467822734 0.9043247398944841 0.3404463033304805
vn -0.15398821433736629 0.9154680816079113 0.37176043549888454
vn 0.29181889347267576 0.6469180647784923 0.7045131303784433
vn 0.513045764807852 0.7246417652592294 0.4600851608721086
vn 0.6881074765306424 0.7246417652592294 -0.037448802178699156
vn 0.4600851608721086 0.7246417652592294 -0.513045764807852
vn -0.037448802178699094 0.7246417652592294 -0.6881074765306424
vn -0.5130457648078519 0.7246417652592294 -0.4600851608721086
vn -0.6881074765306423 0.7246417652592294 0.037448802178699135
vn -0.4600851608721087 0.7246417652592294 0.513045764807852
vn -0.2529570820656123 0.7503782279358095 0.6106924182211249
vn 0.36178643486346485 0.3259311334237633 0.8734297177299872
vn 0.6763605121468024 0.408080737801534 0.6131937451115032
vn 0.9118525600153293 0.408080737801534 -0.044665649316290884
vn 0.6131937451115032 0.4080807378015339 -0.6763605121468023
vn -0.04466564931629084 0.4080807378015339 -0.9118525600153294
vn -0.6763605121468024 0.40808073780153387 -0.6131937451115032
vn -0.9118525600153294 0.408080737801534 0.04466564931629085
vn -0.6131937451115032 0.4080807378015341 0.6763605121468022
vn -0.3422005119905653 0.44764165924036947 0.8261451170986389
vn 0.38247840180734227 -0.032730021134672826 0.9233845449580718
vn 0.7335628806146266 0.02526900774254027 0.6791516601114059
vn 0.9989400316282165 0.025269007742540227 -0.03847454299046376
vn 0.6791516601114059 0.02526900774254021 -0.7335628806146266
vn -0.0384745429904637 0.02526900774254024 -0.9989400316282165
vn -0.7335628806146265 0.025269007742540296 -0.679151660111406
vn -0.9989400316282165 0.025269007742540248 0.03847454299046369
vn -0.6791516601114062 0.025269007742540265 0.7335628806146265
vn -0.38110890490593663 0.0906198016816455 0.9200782869650695
vn 0.3520123921096872 -0.39226393280523253 0.849833091154603
vn 0.6696573677177262 -0.3659290165915546 0.6462623033085745
vn 0.930495722879468 -0.36592901659155463 -0.016542808690007096
vn 0.6462623033085745 -0.36592901659155463 -0.6696573677177262
vn -0.01654280869000704 -0.36592901659155463 -0.930495722879468
vn -0.6696573677177261 -0.36592901659155463 -0.6462623033085745
vn -0.930495722879468 -0.36592901659155463 0.016542808690007127
vn -0.6462623033085746 -0.3659290165915546 0.6696573677177259
vn -0.36709016860678645 -0.28254909752687435 0.8862340636643291
vn 0.26799356909777305 -0.7138477339387792 0.6469937091446152
vn 0.4906557638195967 -0.703859961880579 0.5136517064043281
vn 0.7101526225916438 -0.703859961880579 0.016260586941440086
vn 0.513651706404328 -0.703859961880579 -0.4906557638195966
vn 0.01626058694144011 -0.7038599618805791 -0.7101526225916438
vn -0.4906557638195966 -0.703859961880579 -0.513651706404328
vn -0.7101526225916438 -0.703859961880579 -0.016260586941440093
vn -0.5136517064043281 -0.703859961880579 0.4906557638195967
vn -0.2954960118959521 -0.6354180754795932 0.7133904795463685
vn 0.13337039053854163 -0.9373037141969568 0.32198460565714365
vn 0.23076109895420413 -0.927967658247127 0.2926180795111464
vn 0.37008496622469356 -0.9279676582471268 0.043739490415538256
vn 0.2926180795111464 -0.927967658247127 -0.23076109895420413
vn 0.043739490415538276 -0.9279676582471268 -0.37008496622469356
vn -0.23076109895420413 -0.927967658247127 -0.2926180795111464
vn -0.37008496622469356 -0.9279676582471268 -0.043739490415538276
vn -0.2926180795111464 -0.927967658247127 0.23076109895420413
vn -0.16393881588237688 -0.9035926261503158 0.39578331270261974
vn 0 0 0
vn 0.08054649671665697 -0.9775985643157131 0.19445644477499324
vn 0.19445644477499324 -0.9775985643157132 0.080546496716657
vn 0.19445644477499324 -0.9775985643157131 -0.08054649671665695
vn 0.080546496716657 -0.9775985643157132 -0.19445644477499324
vn -0.08054649671665695 -0.9775985643157131 -0.19445644477499324
vn -0.19445644477499321 -0.9775985643157131 -0.080546496716657
vn -0.19445644477499324 -0.9775985643157131 0.08054649671665695
vn -0.08054649671665703 -0.9775985643157131 0.19445644477499321
f 1/1/1 10/10/10 11/11/11
f 2/2/2 11/11/11 12/12/12
f 3/3/3 12/12/12 13/13/13
f 4/4/4 13/13/13 14/14/14
f 5/5/5 14/14/14 15/15/15
f 6/6/6 15/15/15 16/16/16
f 7/7/7 16/16/16 17/17/17
f 8/8/8 17/17/17 18/18/18
f 10/10/10 19/19/19 20/20/20
f 10/10/10 20/20/20 11/11/11
f 11/11/11 20/20/20 21/21/21
f 11/11/11 21/21/21 12/12/12
f 12/12/12 21/21/21 22/22/22
f 12/12/12 22/22/22 13/13/13
f 13/13/13 22/22/22 23/23/23
f 13/13/13 23/23/23 14/14/14
f 14/14/14 23/23/23 24/24/24
f 14/14/14 24/24/24 15/15/15
f 15/15/15 24/24/24 25/25/25
f 15/15/15 25/25/25 16/16/16
f 16/16/16 25/25/25 26/26/26
f 16/16/16 26/26/26 17/17/17
f 17/17/17 26/26/26 27/27/27
f 17/17/17 27/27/27 18/18/18
f 19/19/19 28/28/28 29/29/29
f 19/19/19 29/29/29 20/20/20
f 20/20/20 29/29/29 30/30/30
f 20/20/20 30/30/30 21/21/21
f 21/21/21 30/30/30 31/31/31
f 21/21/21 31/31/31 22/22/22
f 22/22/22 31/31/31 32/32/32
f 22/22/22 32/32/32 23/23/23
f 23/23/23 32/32/32 33/33/33
f 23/23/23 33/33/33 24/24/24
f 24/24/24 33/33/33 34/34/34
f 24/24/24 34/34/34 25/25/25
f 25/25/25 34/34/34 35/35/35
f 25/25/25 35/35/35 26/26/26
f 26/26/26 35/35/35 36/36/36
f 26/26/26 36/36/36 27/27/27
f 28/28/28 37/37/37 38/38/38
f 28/28/28 38/38/38 29/29/29
f 29/29/29 38/38/38 39/39/39
f 29/29/29 39/39/39 30/30/30
f 30/30/30 39/39/39 40/40/40
f 30/30/30 40/40/40 31/31/31
f 31/31/31 40/40/40 41/41/41
f 31/31/31 41/41/41 32/32/32
f 32/32/32 41/41/41 42/42/42
f 32/32/32 42/42/42 33/33/33
f 33/33/33 42/42/42 43/43/43
f 33/33/33 43/43/43 34/34/34
f 34/34/34 43/43/43 44/44/44
f 34/34/34 44/44/44 35/35/35
f 35/35/35 44/44/44 45/45/45
f 35/35/35 45/45/45 36/36/36
f 37/37/37 46/46/46 47/47/47
f 37/37/37 47/47/47 38/38/38
f 38/38/38 47/47/47 48/48/48
f 38/38/38 48/48/48 39/39/39
f 39/39/39 48/48/48 49/49/49
f 39/39/39 49/49/49 40/40/40
f 40/40/40 49/49/49 50/50/50
f 40/40/40 50/50/50 41/41/41
f 41/41/41 50/50/50 51/51/51
f 41/41/41 51/51/51 42/42/42
f 42/42/42 51/51/51 52/52/52
f 42/42/42 52/52/52 43/43/43
f 43/43/43 52/52/52 53/53/53
f 43/43/43 53/53/53 44/44/44
f 44/44/44 53/53/53 54/54/54
f 44/44/44 54/54/54 45/45/45
f 46/46/46 55/55/55 56/56/56
f 46/46/46 56/56/56 47/47/47
f 47/47/47 56/56/56 57/57/57
f 47/47/47 57/57/57 48/48/48
f 48/48/48 57/57/57 58/58/58
f 48/48/48 58/58/58 49/49/49
f 49/49/49 58/58/58 59/59/59
f 49/49/49 59/59/59 50/50/50
f 50/50/50 59/59/59 60/60/60
f 50/50/50 60/60/60 51/51/51
f 51/51/51 60/60/60 61/61/61
f 51/51/51 61/61/61 52/52/52
f 52/52/52 61/61/61 62/62/62
f 52/52/52 62/62/62 53/53/53
f 53/53/53 62/62/62 63/63/63
f 53/53/53 63/63/63 54/54/54
f 55/55/55 64/64/64 65/65/65
f 55/55/55 65/65/65 56/56/56
f 56/56/56 65/65/65 66/66/66
f 56/56/56 66/66/66 57/57/57
f 57/57/57 66/66/66 67/67/67
f 57/57/57 67/67/67 58/58/58
f 58/58/58 67/67/67 68/68/68
f 58/58/58 68/68/68 59/59/59
f 59/59/59 68/68/68 69/69/69
f 59/59/59 69/69/69 60/60/60
f 60/60/60 69/69/69 70/70/70
f 60/60/60 70/70/70 61/61/61
f 61/61/61 70/70/70 71/71/71
f 61/61/61 71/71/71 62/62/62
f 62/62/62 71/71/71 72/72/72
f 62/62/62 72/72/72 63/63/63
f 64/64/64 74/74/74 65/65/65
f 65/65/65 75/75/75 66/66/66
f 66/66/66 76/76/76 67/67/67
f 67/67/67 77/77/77 68/68/68
f 68/68/68 78/78/78 69/69/69
f 69/69/69 79/79/79 70/70/70
f 70/70/70 80/80/80 71/71/71
f 71/71/71 81/81/81 72/72/72
