#Obj v1.0
o Mesh0
v 0 1.2 -0.07055189999999999
v 0 0 -0.2170821
v -0.2282538 0 -0.05124629999999998
v 0 1.2 -0.07055189999999999
v -0.2282538 0 -0.05124629999999998
v -0.07760639999999999 1.2 -0.016655039999999986
v -0.07760639999999999 1.2 -0.016655039999999986
v -0.2282538 0 -0.05124629999999998
v -0.14106839999999998 0 0.2170821
v -0.07760639999999999 1.2 -0.016655039999999986
v -0.14106839999999998 0 0.2170821
v -0.047963280000000004 1.2 0.0705516
v -0.047963280000000004 1.2 0.0705516
v -0.14106839999999998 0 0.2170821
v 0.14106839999999998 0 0.2170821
v -0.047963280000000004 1.2 0.0705516
v 0.14106839999999998 0 0.2170821
v 0.047963280000000004 1.2 0.0705516
v 0.047963280000000004 1.2 0.0705516
v 0.14106839999999998 0 0.2170821
v 0.2282538 0 -0.05124629999999998
v 0.047963280000000004 1.2 0.0705516
v 0.2282538 0 -0.05124629999999998
v 0.07760639999999999 1.2 -0.016655039999999986
v 0.07760639999999999 1.2 -0.016655039999999986
v 0.2282538 0 -0.05124629999999998
v 0 0 -0.2170821
v 0.07760639999999999 1.2 -0.016655039999999986
v 0 0 -0.2170821
v 0 1.2 -0.07055189999999999
v -0.07760639999999999 1.2 -0.016655039999999986
v -0.047963280000000004 1.2 0.0705516
v 0 1.2 -0.07055189999999999
v 0.07760639999999999 1.2 -0.016655039999999986
v 0 1.2 -0.07055189999999999
v -0.047963280000000004 1.2 0.0705516
v -0.047963280000000004 1.2 0.0705516
v 0.047963280000000004 1.2 0.0705516
v 0.07760639999999999 1.2 -0.016655039999999986
v 0 0 -0.2170821
v 0.2282538 0 -0.05124629999999998
v -0.2282538 0 -0.05124629999999998
v -0.14106839999999998 0 0.2170821
v -0.2282538 0 -0.05124629999999998
v 0.2282538 0 -0.05124629999999998
v 0.2282538 0 -0.05124629999999998
v 0.14106839999999998 0 0.2170821
v -0.14106839999999998 0 0.2170821
vn -0.5849372861402339 0.09830937349841197 -0.8050985271165559
vn -0.5849372861402339 0.09830937349841197 -0.8050985271165559
vn -0.5849372861402339 0.09830937349841197 -0.8050985271165559
vn -0.5678489069651274 0.09485705652936999 -0.81764892079981
vn -0.5678489069651274 0.09485705652936999 -0.81764892079981
vn -0.5678489069651274 0.09485705652936999 -0.81764892079981
vn -0.9453039121570631 0.10981909879469123 0.3071486272156746
vn -0.9453039121570631 0.10981909879469123 0.3071486272156746
vn -0.9453039121570631 0.10981909879469123 0.3071486272156746
vn -0.9408341624944796 0.11204825015425615 0.3198066108145361
vn -0.9408341624944796 0.11204825015425615 0.3198066108145361
vn -0.9408341624944796 0.11204825015425615 0.3198066108145361
vn -6.03649994510661e-17 0.12120845142316965 0.9926270756450265
vn -6.03649994510661e-17 0.12120845142316965 0.9926270756450265
vn -6.03649994510661e-17 0.12120845142316965 0.9926270756450265
vn 0 0.12120845142316963 0.9926270756450264
vn 0 0.12120845142316963 0.9926270756450264
vn 0 0.12120845142316963 0.9926270756450264
vn 0.9451964710227817 0.11083679785319975 0.3071137173877594
vn 0.9451964710227817 0.11083679785319975 0.3071137173877594
vn 0.9451964710227817 0.11083679785319975 0.3071137173877594
vn 0.9411622643958919 0.10893106383173963 0.3199181386068669
vn 0.9411622643958919 0.10893106383173963 0.3199181386068669
vn 0.9411622643958919 0.10893106383173963 0.3199181386068669
vn 0.5850324605307805 0.09665626908925558 -0.8052295236583455
vn 0.5850324605307805 0.09665626908925558 -0.8052295236583455
vn 0.5850324605307805 0.09665626908925558 -0.8052295236583455
vn 0.5675735472103669 0.09979346818973887 -0.8172524286985662
vn 0.5675735472103669 0.09979346818973887 -0.8172524286985662
vn 0.5675735472103669 0.09979346818973887 -0.8172524286985662
vn 0 0.9999999999999999 0
vn 0 0.9999999999999999 0
vn 0 0.9999999999999999 0
vn 0 0.9999999999999999 0
vn 0 0.9999999999999999 0
vn 0 0.9999999999999999 0
vn 0 1 0
vn 0 1 0
vn 0 1 0
vn 0 -1 0
vn 0 -1 0
vn 0 -1 0
vn 0 -1 0
vn 0 -1 0
vn 0 -1 0
vn 0 -1 0
vn 0 -1 0
vn 0 -1 0
f 1/1/1 2/2/2 3/3/3
f 4/4/4 5/5/5 6/6/6
f 7/7/7 8/8/8 9/9/9
f 10/10/10 11/11/11 12/12/12
f 13/13/13 14/14/14 15/15/15
f 16/16/16 17/17/17 18/18/18
f 19/19/19 20/20/20 21/21/21
f 22/22/22 23/23/23 24/24/24
f 25/25/25 26/26/26 27/27/27
f 28/28/28 29/29/29 30/30/30
f 31/31/31 32/32/32 33/33/33
f 34/34/34 35/35/35 36/36/36
f 37/37/37 38/38/38 39/39/39
f 40/40/40 41/41/41 42/42/42
f 43/43/43 44/44/44 45/45/45
f 46/46/46 47/47/47 48/48/48
