<?xml version="1.0" encoding="utf-8"?>
<!-- Generator: Adobe Illustrator 17.1.0, SVG Export Plug-In . SVG Version: 6.00 Build 0)  -->
<!DOCTYPE svg PUBLIC "-//W3C//DTD SVG 1.1//EN" "http://www.w3.org/Graphics/SVG/1.1/DTD/svg11.dtd">
<svg version="1.1" id="Calque_1" xmlns="http://www.w3.org/2000/svg" xmlns:xlink="http://www.w3.org/1999/xlink" x="0px" y="0px"
	 viewBox="0 0 30 30" enable-background="new 0 0 30 30" xml:space="preserve">
<g>
	<rect fill="#FFFFFF" width="30" height="30"/>
</g>
<g>
	<g>
		<path fill="#101014" d="M18.5,20.1c-0.4,0-0.8-0.1-1.1-0.4l-7.1-7.1c-0.6-0.6-0.6-1.5,0-2.1c0.6-0.6,1.5-0.6,2.1,0l7.1,7.1
			c0.6,0.6,0.6,1.5,0,2.1C19.3,19.9,18.9,20.1,18.5,20.1z"/>
	</g>
	<g>
		<path fill="#101014" d="M11.4,20.1c-0.4,0-0.8-0.1-1.1-0.4c-0.6-0.6-0.6-1.5,0-2.1l7.1-7.1c0.6-0.6,1.5-0.6,2.1,0
			c0.6,0.6,0.6,1.5,0,2.1l-7.1,7.1C12.2,19.9,11.8,20.1,11.4,20.1z"/>
	</g>
</g>
</svg>
